<?xml version="1.0" encoding="iso-8859-1"?>
<!-- Uploaded to: SVG Repo, www.svgrepo.com, Generator: SVG Repo Mixer Tools -->
<svg height="800px" width="800px" version="1.1" id="Layer_1" xmlns="http://www.w3.org/2000/svg" xmlns:xlink="http://www.w3.org/1999/xlink" 
	 viewBox="0 0 512 512" xml:space="preserve">
<circle style="fill:#767B95;" cx="256" cy="256" r="241.933"/>
<path d="M256,512C114.841,512,0,397.159,0,256S114.841,0,256,0s256,114.842,256,256S397.159,512,256,512z M256,28.133
	C130.355,28.133,28.133,130.355,28.133,256S130.353,483.867,256,483.867S483.867,381.645,483.867,256S381.645,28.133,256,28.133z"/>
<circle style="fill:#FF5050;" cx="256" cy="256" r="98.931"/>
<path d="M256,369.002c-62.31,0-113.002-50.692-113.002-113.002S193.692,142.998,256,142.998S369.002,193.69,369.002,256
	S318.31,369.002,256,369.002z M256,171.131c-46.797,0-84.869,38.072-84.869,84.869s38.072,84.869,84.869,84.869
	s84.869-38.072,84.869-84.869S302.797,171.131,256,171.131z"/>
<circle style="fill:#FFDC64;" cx="256" cy="256" r="40.793"/>
<path d="M256,310.86c-30.25,0-54.86-24.61-54.86-54.86s24.61-54.86,54.86-54.86s54.86,24.61,54.86,54.86S286.25,310.86,256,310.86z
	 M256,229.273c-14.738,0-26.727,11.989-26.727,26.727c0,14.738,11.989,26.727,26.727,26.727c14.738,0,26.727-11.989,26.727-26.727
	C282.727,241.262,270.738,229.273,256,229.273z"/>
<path d="M86.455,277.411c-7.489,0-13.715-5.902-14.043-13.458c-2.225-51.366,17.323-101.65,53.634-137.959
	c24.739-24.739,55.796-41.819,89.809-49.395c7.578-1.694,15.099,3.088,16.789,10.672c1.689,7.583-3.089,15.099-10.672,16.789
	c-28.786,6.412-55.078,20.876-76.032,41.829c-30.748,30.748-47.304,73.338-45.419,116.848c0.336,7.762-5.683,14.327-13.445,14.662
	C86.868,277.407,86.661,277.411,86.455,277.411z"/>
<path d="M263.399,100.478c-0.914,0-1.843-0.097-2.757-0.266c-0.886-0.183-1.772-0.45-2.63-0.802
	c-0.844-0.352-1.66-0.788-2.419-1.294c-0.774-0.52-1.491-1.111-2.138-1.758c-2.616-2.616-4.122-6.246-4.122-9.945
	s1.505-7.329,4.122-9.944c2.616-2.616,6.246-4.123,9.945-4.123s7.329,1.505,9.945,4.123c0.647,0.647,1.238,1.364,1.743,2.138
	c0.506,0.76,0.944,1.575,1.296,2.434c0.352,0.844,0.618,1.729,0.8,2.629c0.183,0.902,0.281,1.83,0.281,2.743
	c0,3.7-1.505,7.329-4.122,9.945c-0.647,0.647-1.379,1.238-2.14,1.758c-0.76,0.506-1.575,0.942-2.432,1.294
	c-0.845,0.352-1.73,0.619-2.63,0.802C265.24,100.38,264.313,100.478,263.399,100.478z"/>
<path d="M293.178,435.742c-6.445,0-12.258-4.458-13.716-11.011c-1.688-7.583,3.089-15.099,10.672-16.789
	c28.786-6.412,55.077-20.875,76.032-41.829c30.748-30.748,47.304-73.338,45.42-116.848c-0.336-7.762,5.683-14.327,13.445-14.662
	c7.74-0.374,14.326,5.683,14.662,13.445c2.225,51.366-17.323,101.65-53.632,137.959c-24.742,24.741-55.797,41.82-89.81,49.395
	C295.219,435.63,294.19,435.742,293.178,435.742z"/>
<path d="M248.713,439.655c-3.714,0-7.343-1.505-9.945-4.122c-2.63-2.616-4.122-6.246-4.122-9.945c0-0.913,0.084-1.843,0.267-2.743
	c0.183-0.9,0.45-1.786,0.802-2.645c0.352-0.844,0.788-1.66,1.294-2.419c0.52-0.774,1.097-1.492,1.758-2.14
	c2.602-2.615,6.232-4.122,9.945-4.122c3.7,0,7.329,1.505,9.945,4.122c0.647,0.647,1.238,1.366,1.744,2.14
	c0.506,0.76,0.942,1.575,1.294,2.419c0.352,0.858,0.619,1.744,0.802,2.645c0.183,0.902,0.266,1.83,0.266,2.743
	c0,3.7-1.491,7.329-4.122,9.945c-0.633,0.647-1.364,1.238-2.124,1.744c-0.774,0.505-1.59,0.943-2.434,1.294
	c-0.844,0.352-1.73,0.618-2.63,0.8C250.556,439.555,249.628,439.655,248.713,439.655z"/>
</svg>